<svg width="16" height="17" viewBox="0 0 16 17" fill="none" xmlns="http://www.w3.org/2000/svg">
<g id="fluent:location-28-filled">
<path id="Vector" d="M8 1.78564C9.47764 1.78564 10.8948 2.37263 11.9396 3.41748C12.9844 4.46232 13.5714 5.87944 13.5714 7.35707C13.5714 9.71136 11.9171 12.2771 8.65143 15.0816C8.46984 15.2376 8.23832 15.3233 7.99893 15.3231C7.75954 15.3229 7.52817 15.2368 7.34686 15.0805L7.13086 14.8931C4.00972 12.1616 2.42857 9.65879 2.42857 7.35707C2.42857 5.87944 3.01556 4.46232 4.06041 3.41748C5.10525 2.37263 6.52237 1.78564 8 1.78564ZM8 5.21422C7.43168 5.21422 6.88664 5.43998 6.48477 5.84184C6.08291 6.24371 5.85714 6.78875 5.85714 7.35707C5.85714 7.92539 6.08291 8.47044 6.48477 8.8723C6.88664 9.27417 7.43168 9.49993 8 9.49993C8.56832 9.49993 9.11337 9.27417 9.51523 8.8723C9.91709 8.47044 10.1429 7.92539 10.1429 7.35707C10.1429 6.78875 9.91709 6.24371 9.51523 5.84184C9.11337 5.43998 8.56832 5.21422 8 5.21422Z" fill="#FF7D01"/>
</g>
</svg>
